<?xml version="1.0" encoding="UTF-8" standalone="no"?>
<!-- Created with Inkscape (http://www.inkscape.org/) -->

<svg
   width="3.4949646mm"
   height="3.4953156mm"
   viewBox="0 0 3.4949646 3.4953156"
   version="1.1"
   id="svg72303"
   inkscape:version="1.2 (dc2aeda, 2022-05-15)"
   sodipodi:docname="plasmas.svg"
   xmlns:inkscape="http://www.inkscape.org/namespaces/inkscape"
   xmlns:sodipodi="http://sodipodi.sourceforge.net/DTD/sodipodi-0.dtd"
   xmlns="http://www.w3.org/2000/svg"
   xmlns:svg="http://www.w3.org/2000/svg">
  <sodipodi:namedview
     id="namedview72305"
     pagecolor="#ffffff"
     bordercolor="#000000"
     borderopacity="0.25"
     inkscape:showpageshadow="2"
     inkscape:pageopacity="0.0"
     inkscape:pagecheckerboard="0"
     inkscape:deskcolor="#d1d1d1"
     inkscape:document-units="mm"
     showgrid="false"
     inkscape:zoom="4.8448706"
     inkscape:cx="338.91514"
     inkscape:cy="488.66114"
     inkscape:window-width="1453"
     inkscape:window-height="1147"
     inkscape:window-x="0"
     inkscape:window-y="25"
     inkscape:window-maximized="0"
     inkscape:current-layer="layer1" />
  <defs
     id="defs72300">
    <clipPath
       clipPathUnits="userSpaceOnUse"
       id="clipPath695">
      <path
         d="M -74.738601,-277.86471 H 231.26141 V 118.1353 H -74.738601 Z"
         id="path697"
         style="stroke-width:0.999998" />
    </clipPath>
    <clipPath
       clipPathUnits="userSpaceOnUse"
       id="clipPath699">
      <path
         d="m -80.7467,-273.55709 h 306.00001 v 396 H -80.7467 Z"
         id="path701"
         style="stroke-width:0.999998" />
    </clipPath>
    <clipPath
       clipPathUnits="userSpaceOnUse"
       id="clipPath703">
      <path
         d="m -80.7467,-273.55709 h 306.00001 v 396 H -80.7467 Z"
         id="path705"
         style="stroke-width:0.999998" />
    </clipPath>
  </defs>
  <g
     inkscape:label="sellos"
     inkscape:groupmode="layer"
     id="layer1"
     transform="translate(-92.508265,-129.6074)">
    <g
       id="g733">
      <g
         id="g48360"
         transform="matrix(0.35277777,0,0,-0.35277777,95.470542,133.05546)"
         clip-path="url(#clipPath703)">
        <path
           d="M 0,0 C 0.76,0 1.376,0.617 1.376,1.38 V 8.264 C 1.376,9.025 0.76,9.64 0,9.64 h -6.885 c -0.761,0 -1.378,-0.615 -1.378,-1.376 V 1.38 C -8.263,0.617 -7.646,0 -6.885,0 Z"
           style="fill:#ffffff;fill-opacity:1;fill-rule:nonzero;stroke:none"
           id="path48362" />
      </g>
      <g
         id="g48364"
         transform="matrix(0.35277777,0,0,-0.35277777,95.470542,133.05546)"
         clip-path="url(#clipPath699)">
        <path
           d="M 0,0 C 0.76,0 1.376,0.617 1.376,1.38 V 8.264 C 1.376,9.025 0.76,9.64 0,9.64 h -6.885 c -0.761,0 -1.378,-0.615 -1.378,-1.376 V 1.38 C -8.263,0.617 -7.646,0 -6.885,0 Z"
           style="fill:none;stroke:#231f20;stroke-width:0.268;stroke-linecap:butt;stroke-linejoin:miter;stroke-miterlimit:4;stroke-dasharray:none;stroke-opacity:1"
           id="path48366" />
      </g>
      <g
         id="g48368"
         transform="matrix(0.35277777,0,0,-0.35277777,93.351018,131.53583)"
         clip-path="url(#clipPath695)">
        <path
           d="M 0,0 C 0.695,0 1.258,0.564 1.258,1.259 1.258,1.957 0.695,2.52 0,2.52 -0.696,2.52 -1.261,1.957 -1.261,1.259 -1.261,0.564 -0.696,0 0,0 Z m 4.565,-4.286 c 0,1.723 -3.036,3.118 -6.783,3.118 M 0,1.259 V 0 m -1.261,1.259 h 2.519 m 0.015,-4.072 h -3.47 M 7.38,1.607 C 6.693,0.721 5.515,0.047 3.66,0.3 3.916,3.164 5.952,3.991 7.384,3.991 M 3.912,1.549 C 3.501,1.492 3.043,1.492 2.536,1.561 2.791,4.427 4.827,5.289 6.258,5.289"
           style="fill:none;stroke:#231f20;stroke-width:0.268;stroke-linecap:butt;stroke-linejoin:miter;stroke-miterlimit:3.864;stroke-dasharray:none;stroke-opacity:1"
           id="path48370" />
      </g>
    </g>
  </g>
</svg>
