<?xml version="1.0" encoding="UTF-8" standalone="no"?>
<!-- Created with Inkscape (http://www.inkscape.org/) -->

<svg
   width="3.4949722mm"
   height="3.4949799mm"
   viewBox="0 0 3.4949722 3.4949799"
   version="1.1"
   id="svg72303"
   inkscape:version="1.2 (dc2aeda, 2022-05-15)"
   sodipodi:docname="plasmas.svg"
   xmlns:inkscape="http://www.inkscape.org/namespaces/inkscape"
   xmlns:sodipodi="http://sodipodi.sourceforge.net/DTD/sodipodi-0.dtd"
   xmlns="http://www.w3.org/2000/svg"
   xmlns:svg="http://www.w3.org/2000/svg">
  <sodipodi:namedview
     id="namedview72305"
     pagecolor="#ffffff"
     bordercolor="#000000"
     borderopacity="0.25"
     inkscape:showpageshadow="2"
     inkscape:pageopacity="0.0"
     inkscape:pagecheckerboard="0"
     inkscape:deskcolor="#d1d1d1"
     inkscape:document-units="mm"
     showgrid="false"
     inkscape:zoom="4.8448706"
     inkscape:cx="338.91514"
     inkscape:cy="488.66114"
     inkscape:window-width="1453"
     inkscape:window-height="1147"
     inkscape:window-x="0"
     inkscape:window-y="25"
     inkscape:window-maximized="0"
     inkscape:current-layer="layer1" />
  <defs
     id="defs72300">
    <clipPath
       clipPathUnits="userSpaceOnUse"
       id="clipPath906">
      <path
         d="m -110.34159,-275.6869 h 306.00001 v 396 h -306.00001 z"
         id="path908"
         style="stroke-width:0.999998" />
    </clipPath>
    <clipPath
       clipPathUnits="userSpaceOnUse"
       id="clipPath910">
      <path
         d="M -112.6131,-280.287 H 193.38691 V 115.71301 H -112.6131 Z"
         id="path912"
         style="stroke-width:0.999998" />
    </clipPath>
    <clipPath
       clipPathUnits="userSpaceOnUse"
       id="clipPath914">
      <path
         d="M -118.44221,-278.5061 H 187.5578 v 396 h -306.00001 z"
         id="path916"
         style="stroke-width:0.999998" />
    </clipPath>
    <clipPath
       clipPathUnits="userSpaceOnUse"
       id="clipPath918">
      <path
         d="M -118.58471,-273.55859 H 187.4153 v 396 h -306.00001 z"
         id="path920"
         style="stroke-width:0.999998" />
    </clipPath>
    <clipPath
       clipPathUnits="userSpaceOnUse"
       id="clipPath922">
      <path
         d="m -118.57819,-273.56761 h 306.00001 v 396 h -306.00001 z"
         id="path924"
         style="stroke-width:0.999998" />
    </clipPath>
  </defs>
  <g
     inkscape:label="sellos"
     inkscape:groupmode="layer"
     id="layer1"
     transform="translate(-105.85739,-129.60722)">
    <g
       id="g956">
      <g
         id="g48514"
         transform="matrix(0.35277777,0,0,-0.35277777,108.81665,133.05175)"
         clip-path="url(#clipPath922)">
        <path
           d="M 0,0 C 0.761,0 1.376,0.615 1.376,1.374 V 8.247 C 1.376,9.006 0.761,9.621 0,9.621 h -6.872 c -0.758,0 -1.373,-0.615 -1.373,-1.374 V 1.374 C -8.245,0.615 -7.63,0 -6.872,0 Z"
           style="fill:#05a1e6;fill-opacity:1;fill-rule:nonzero;stroke:none"
           id="path48516" />
      </g>
      <g
         id="g48518"
         transform="matrix(0.35277777,0,0,-0.35277777,108.81895,133.05493)"
         clip-path="url(#clipPath918)">
        <path
           d="M 0,0 C 0.762,0 1.378,0.616 1.378,1.377 V 8.263 C 1.378,9.023 0.762,9.639 0,9.639 h -6.885 c -0.759,0 -1.376,-0.616 -1.376,-1.376 V 1.377 C -8.261,0.616 -7.644,0 -6.885,0 Z"
           style="fill:none;stroke:#231f20;stroke-width:0.268;stroke-linecap:butt;stroke-linejoin:miter;stroke-miterlimit:4;stroke-dasharray:none;stroke-opacity:1"
           id="path48520" />
      </g>
      <g
         id="g48522"
         transform="matrix(0.35277777,0,0,-0.35277777,108.76868,131.30956)"
         clip-path="url(#clipPath914)">
        <path
           d="M 0,0 V -4.899 M -1.151,0 v -4.899 m -1.153,3.398 v -3.398 m -1.15,3.398 v -3.398 m -1.153,2.156 v -2.156 m -3.483,7.35 h 5.836 M -6.91,1.773 c 0,0.337 0.796,0.611 1.78,0.611 0.984,0 1.78,-0.274 1.78,-0.611 0,-0.337 -0.796,-0.609 -1.78,-0.609 -0.984,0 -1.78,0.272 -1.78,0.609 z"
           style="fill:none;stroke:#231f20;stroke-width:0.268;stroke-linecap:butt;stroke-linejoin:miter;stroke-miterlimit:3.864;stroke-dasharray:none;stroke-opacity:1"
           id="path48524" />
      </g>
      <g
         id="g48526"
         transform="matrix(0.35277777,0,0,-0.35277777,106.7123,130.6813)"
         clip-path="url(#clipPath910)">
        <path
           d="M 0,0 C 0,0.33 0.302,0.598 0.673,0.598 1.046,0.598 1.346,0.33 1.346,0 1.346,-0.33 1.046,-0.597 0.673,-0.597 0.302,-0.597 0,-0.33 0,0"
           style="fill:#231f20;fill-opacity:1;fill-rule:nonzero;stroke:none"
           id="path48528" />
      </g>
      <g
         id="g48530"
         transform="matrix(0.35277777,0,0,-0.35277777,105.91096,132.30411)"
         clip-path="url(#clipPath906)">
        <path
           d="M 0,0 C 0,1.441 1.17,2.611 2.615,2.611 H 3.527 0.026"
           style="fill:none;stroke:#231f20;stroke-width:0.268;stroke-linecap:butt;stroke-linejoin:miter;stroke-miterlimit:3.864;stroke-dasharray:none;stroke-opacity:1"
           id="path48532" />
      </g>
    </g>
  </g>
</svg>
