<?xml version="1.0" encoding="UTF-8" standalone="no"?>
<!-- Created with Inkscape (http://www.inkscape.org/) -->

<svg
   width="3.4949646mm"
   height="3.4949646mm"
   viewBox="0 0 3.4949646 3.4949646"
   version="1.1"
   id="svg72303"
   inkscape:version="1.2 (dc2aeda, 2022-05-15)"
   sodipodi:docname="plasmas.svg"
   xmlns:inkscape="http://www.inkscape.org/namespaces/inkscape"
   xmlns:sodipodi="http://sodipodi.sourceforge.net/DTD/sodipodi-0.dtd"
   xmlns="http://www.w3.org/2000/svg"
   xmlns:svg="http://www.w3.org/2000/svg">
  <sodipodi:namedview
     id="namedview72305"
     pagecolor="#ffffff"
     bordercolor="#000000"
     borderopacity="0.25"
     inkscape:showpageshadow="2"
     inkscape:pageopacity="0.0"
     inkscape:pagecheckerboard="0"
     inkscape:deskcolor="#d1d1d1"
     inkscape:document-units="mm"
     showgrid="false"
     inkscape:zoom="4.8448706"
     inkscape:cx="338.91514"
     inkscape:cy="488.66114"
     inkscape:window-width="1453"
     inkscape:window-height="1147"
     inkscape:window-x="0"
     inkscape:window-y="25"
     inkscape:window-maximized="0"
     inkscape:current-layer="layer1" />
  <defs
     id="defs72300">
    <clipPath
       clipPathUnits="userSpaceOnUse"
       id="clipPath48656">
      <path
         d="M 0,0 H 306 V 396 H 0 Z"
         id="path48654" />
    </clipPath>
    <clipPath
       clipPathUnits="userSpaceOnUse"
       id="clipPath18625">
      <path
         d="M -157.1866,-307.96861 H 148.81341 V 88.031387 H -157.1866 Z"
         id="path18627"
         style="stroke-width:0.999998" />
    </clipPath>
    <clipPath
       clipPathUnits="userSpaceOnUse"
       id="clipPath18629">
      <path
         d="M -157.1866,-307.96861 H 148.81341 V 88.031387 H -157.1866 Z"
         id="path18631"
         style="stroke-width:0.999998" />
    </clipPath>
    <clipPath
       clipPathUnits="userSpaceOnUse"
       id="clipPath18633">
      <path
         d="M -157.18011,-307.9776 H 148.8199 V 88.022401 h -306.00001 z"
         id="path18635"
         style="stroke-width:0.999998" />
    </clipPath>
  </defs>
  <g
     inkscape:label="sellos"
     inkscape:groupmode="layer"
     id="layer1"
     transform="translate(-119.47492,-117.46814)">
    <g
       id="g18681">
      <g
         id="g48606"
         transform="matrix(0.35277777,0,0,-0.35277777,122.43455,120.91267)"
         clip-path="url(#clipPath18633)">
        <path
           d="M 0,0 C 0.76,0 1.375,0.615 1.375,1.374 V 8.246 C 1.375,9.005 0.76,9.621 0,9.621 h -6.871 c -0.76,0 -1.376,-0.616 -1.376,-1.375 V 1.374 C -8.247,0.615 -7.631,0 -6.871,0 Z"
           style="fill:#ed1639;fill-opacity:1;fill-rule:nonzero;stroke:none"
           id="path48608" />
      </g>
      <g
         id="g48610"
         transform="matrix(0.35277777,0,0,-0.35277777,122.43684,120.91584)"
         clip-path="url(#clipPath18629)">
        <path
           d="M 0,0 C 0.762,0 1.377,0.616 1.377,1.376 V 8.261 C 1.377,9.022 0.762,9.639 0,9.639 h -6.884 c -0.761,0 -1.378,-0.617 -1.378,-1.378 V 1.376 C -8.262,0.616 -7.645,0 -6.884,0 Z"
           style="fill:#ed114e;fill-opacity:1;fill-rule:nonzero;stroke:none"
           id="path48612" />
      </g>
      <g
         id="g48614"
         transform="matrix(0.35277777,0,0,-0.35277777,122.43684,120.91584)"
         clip-path="url(#clipPath18625)">
        <path
           d="M 0,0 C 0.762,0 1.377,0.616 1.377,1.376 V 8.261 C 1.377,9.022 0.762,9.639 0,9.639 h -6.884 c -0.761,0 -1.378,-0.617 -1.378,-1.378 V 1.376 C -8.262,0.616 -7.645,0 -6.884,0 Z"
           style="fill:none;stroke:#231f20;stroke-width:0.268;stroke-linecap:butt;stroke-linejoin:miter;stroke-miterlimit:4;stroke-dasharray:none;stroke-opacity:1"
           id="path48616" />
      </g>
      <g
         id="g48618"
         transform="matrix(0.35277777,0,0,-0.35277777,121.67777,119.98028)">
        <path
           d="M 0,0 0.229,-0.154 0.383,0.077 0.154,0.229 Z"
           style="fill:#231f20;fill-opacity:1;fill-rule:nonzero;stroke:none"
           id="path48620" />
      </g>
      <g
         id="g48622"
         transform="matrix(0.35277777,0,0,-0.35277777,121.78635,119.81835)">
        <path
           d="M 0,0 0.229,-0.154 0.382,0.075 0.153,0.229 Z"
           style="fill:#231f20;fill-opacity:1;fill-rule:nonzero;stroke:none"
           id="path48624" />
      </g>
      <g
         id="g48626"
         transform="matrix(0.35277777,0,0,-0.35277777,121.8943,119.65674)">
        <path
           d="M 0,0 0.229,-0.153 0.383,0.076 0.153,0.23 Z"
           style="fill:#231f20;fill-opacity:1;fill-rule:nonzero;stroke:none"
           id="path48628" />
      </g>
      <g
         id="g48630"
         transform="matrix(0.35277777,0,0,-0.35277777,122.00289,119.49482)">
        <path
           d="M 0,0 0.23,-0.153 0.383,0.076 0.152,0.23 Z"
           style="fill:#231f20;fill-opacity:1;fill-rule:nonzero;stroke:none"
           id="path48632" />
      </g>
      <g
         id="g48634"
         transform="matrix(0.35277777,0,0,-0.35277777,121.35328,120.46573)">
        <path
           d="M 0,0 0.229,-0.153 0.382,0.076 0.152,0.229 Z"
           style="fill:#231f20;fill-opacity:1;fill-rule:nonzero;stroke:none"
           id="path48636" />
      </g>
      <g
         id="g48638"
         transform="matrix(0.35277777,0,0,-0.35277777,121.46091,120.30349)">
        <path
           d="M 0,0 0.229,-0.154 0.383,0.075 0.153,0.229 Z"
           style="fill:#231f20;fill-opacity:1;fill-rule:nonzero;stroke:none"
           id="path48640" />
      </g>
      <g
         id="g48642"
         transform="matrix(0.35277777,0,0,-0.35277777,121.56918,120.14188)">
        <path
           d="M 0,0 0.23,-0.155 0.384,0.076 0.155,0.229 Z"
           style="fill:#231f20;fill-opacity:1;fill-rule:nonzero;stroke:none"
           id="path48644" />
      </g>
      <g
         id="g48646"
         transform="matrix(0.35277777,0,0,-0.35277777,121.67777,119.98028)">
        <path
           d="M 0,0 0.229,-0.154 0.383,0.077 0.154,0.229 Z"
           style="fill:#231f20;fill-opacity:1;fill-rule:nonzero;stroke:none"
           id="path48648" />
      </g>
      <g
         id="g48650"
         transform="matrix(0.35277777,0,0,-0.35277777,66.984901,229.56032)">
        <g
           id="g48652"
           clip-path="url(#clipPath48656)">
          <g
             id="g48658"
             transform="translate(156.4791,312.494)">
            <path
               d="M 0,0 C 0.697,0 1.26,0.566 1.26,1.266 1.26,1.963 0.697,2.53 0,2.53 -0.695,2.53 -1.261,1.963 -1.261,1.266 -1.261,0.566 -0.695,0 0,0 Z m -5.943,2.339 c 0,0.749 0.604,1.355 1.351,1.355 h 6.668"
               style="fill:none;stroke:#231f20;stroke-width:0.268;stroke-linecap:butt;stroke-linejoin:miter;stroke-miterlimit:4;stroke-dasharray:none;stroke-opacity:1"
               id="path48660" />
          </g>
        </g>
      </g>
      <g
         id="g48662"
         transform="matrix(0.35277777,0,0,-0.35277777,120.6515,118.9253)">
        <path
           d="m 0,0 -0.153,-0.584 -0.692,-0.318 -0.682,0.691 V 0.574 L -1.13,1.159 -0.081,1.456 0.706,1.115 1.282,0.67 1.698,-0.512 1.356,-0.968 0.106,-1.781 -0.259,-2.268 0.346,-2.643 -0.259,-2.901 0.423,-3.055 -0.384,-3.533 0.144,-3.582 0.395,-4.175 M 0.01,-4.557 h 0.433 l -0.529,-0.432 0.722,-0.192 0.192,0.192"
           style="fill:none;stroke:#231f20;stroke-width:0.365;stroke-linecap:butt;stroke-linejoin:miter;stroke-miterlimit:3.864;stroke-dasharray:none;stroke-opacity:1"
           id="path48664" />
      </g>
    </g>
  </g>
</svg>
