<?xml version="1.0" encoding="UTF-8" standalone="no"?>
<!-- Created with Inkscape (http://www.inkscape.org/) -->

<svg
   width="3.4949722mm"
   height="3.4953232mm"
   viewBox="0 0 3.4949722 3.4953232"
   version="1.1"
   id="svg72303"
   inkscape:version="1.2 (dc2aeda, 2022-05-15)"
   sodipodi:docname="plasmas.svg"
   xmlns:inkscape="http://www.inkscape.org/namespaces/inkscape"
   xmlns:sodipodi="http://sodipodi.sourceforge.net/DTD/sodipodi-0.dtd"
   xmlns="http://www.w3.org/2000/svg"
   xmlns:svg="http://www.w3.org/2000/svg">
  <sodipodi:namedview
     id="namedview72305"
     pagecolor="#ffffff"
     bordercolor="#000000"
     borderopacity="0.25"
     inkscape:showpageshadow="2"
     inkscape:pageopacity="0.0"
     inkscape:pagecheckerboard="0"
     inkscape:deskcolor="#d1d1d1"
     inkscape:document-units="mm"
     showgrid="false"
     inkscape:zoom="4.8448706"
     inkscape:cx="338.91514"
     inkscape:cy="488.66114"
     inkscape:window-width="1453"
     inkscape:window-height="1147"
     inkscape:window-x="0"
     inkscape:window-y="25"
     inkscape:window-maximized="0"
     inkscape:current-layer="layer1" />
  <defs
     id="defs72300">
    <clipPath
       clipPathUnits="userSpaceOnUse"
       id="clipPath48672">
      <path
         d="M 0,0 H 306 V 396 H 0 Z"
         id="path48670" />
    </clipPath>
  </defs>
  <g
     inkscape:label="sellos"
     inkscape:groupmode="layer"
     id="layer1"
     transform="translate(-119.47505,-121.51412)">
    <g
       id="g18691">
      <g
         id="g48666"
         transform="matrix(0.35277777,0,0,-0.35277777,66.984901,229.56032)">
        <g
           id="g48668"
           clip-path="url(#clipPath48672)">
          <g
             id="g48674"
             transform="translate(157.186,296.4987)">
            <path
               d="M 0,0 C 0.761,0 1.378,0.616 1.378,1.377 V 8.262 C 1.378,9.023 0.761,9.64 0,9.64 h -6.884 c -0.761,0 -1.377,-0.617 -1.377,-1.378 V 1.377 C -8.261,0.616 -7.645,0 -6.884,0 Z"
               style="fill:#ffffff;fill-opacity:1;fill-rule:nonzero;stroke:none"
               id="path48676" />
          </g>
          <g
             id="g48678"
             transform="translate(157.186,296.4987)">
            <path
               d="M 0,0 C 0.761,0 1.378,0.616 1.378,1.377 V 8.262 C 1.378,9.023 0.761,9.64 0,9.64 h -6.884 c -0.761,0 -1.377,-0.617 -1.377,-1.378 V 1.377 C -8.261,0.616 -7.645,0 -6.884,0 Z"
               style="fill:none;stroke:#231f20;stroke-width:0.268;stroke-linecap:butt;stroke-linejoin:miter;stroke-miterlimit:4;stroke-dasharray:none;stroke-opacity:1"
               id="path48680" />
          </g>
        </g>
      </g>
      <g
         id="g48682"
         transform="matrix(0.35277777,0,0,-0.35277777,122.929,124.52257)">
        <path
           d="m 0,0 h -1.169 v 1.188 h -1.17 v 1.227 h -1.167 v 2.346 h 1.167 V 5.99 h 1.17 V 7.176 H 0 M -9.663,0 h 1.169 v 1.188 h 1.17 v 1.227 h 1.169 V 4.761 H -7.324 V 5.99 h -1.17 V 7.176 H -9.663 M -3.51,3.589 h -2.624"
           style="fill:none;stroke:#231f20;stroke-width:0.268;stroke-linecap:butt;stroke-linejoin:miter;stroke-miterlimit:3.864;stroke-dasharray:none;stroke-opacity:1"
           id="path48684" />
      </g>
    </g>
  </g>
</svg>
