<?xml version="1.0" encoding="UTF-8" standalone="no"?>
<!-- Created with Inkscape (http://www.inkscape.org/) -->

<svg
   width="3.4953232mm"
   height="3.4949722mm"
   viewBox="0 0 3.4953232 3.4949722"
   version="1.1"
   id="svg72303"
   inkscape:version="1.2 (dc2aeda, 2022-05-15)"
   sodipodi:docname="plasmas.svg"
   xmlns:inkscape="http://www.inkscape.org/namespaces/inkscape"
   xmlns:sodipodi="http://sodipodi.sourceforge.net/DTD/sodipodi-0.dtd"
   xmlns="http://www.w3.org/2000/svg"
   xmlns:svg="http://www.w3.org/2000/svg">
  <sodipodi:namedview
     id="namedview72305"
     pagecolor="#ffffff"
     bordercolor="#000000"
     borderopacity="0.25"
     inkscape:showpageshadow="2"
     inkscape:pageopacity="0.0"
     inkscape:pagecheckerboard="0"
     inkscape:deskcolor="#d1d1d1"
     inkscape:document-units="mm"
     showgrid="false"
     inkscape:zoom="4.8448706"
     inkscape:cx="338.91514"
     inkscape:cy="488.66114"
     inkscape:window-width="1453"
     inkscape:window-height="1147"
     inkscape:window-x="0"
     inkscape:window-y="25"
     inkscape:window-maximized="0"
     inkscape:current-layer="layer1" />
  <defs
     id="defs72300">
    <clipPath
       clipPathUnits="userSpaceOnUse"
       id="clipPath18747">
      <path
         d="M -154.17771,-293.53001 H 151.8223 v 396 h -306.00001 z"
         id="path18749"
         style="stroke-width:0.999998" />
    </clipPath>
    <clipPath
       clipPathUnits="userSpaceOnUse"
       id="clipPath18751">
      <path
         d="m -150.919,-286.2442 h 306.00001 v 396 H -150.919 Z"
         id="path18753"
         style="stroke-width:0.999998" />
    </clipPath>
    <clipPath
       clipPathUnits="userSpaceOnUse"
       id="clipPath18755">
      <path
         d="m -153.357,-290.21931 h 306.00001 v 396 H -153.357 Z"
         id="path18757"
         style="stroke-width:0.999998" />
    </clipPath>
    <clipPath
       clipPathUnits="userSpaceOnUse"
       id="clipPath18759">
      <path
         d="m -153.357,-291.21781 h 306.00001 v 396 H -153.357 Z"
         id="path18761"
         style="stroke-width:0.999998" />
    </clipPath>
    <clipPath
       clipPathUnits="userSpaceOnUse"
       id="clipPath18763">
      <path
         d="m -154.275,-293.56569 h 306.00001 v 396 H -154.275 Z"
         id="path18765"
         style="stroke-width:0.999998" />
    </clipPath>
    <clipPath
       clipPathUnits="userSpaceOnUse"
       id="clipPath18767">
      <path
         d="m -157.1881,-285.0293 h 306 v 396 h -306 z"
         id="path18769"
         style="stroke-width:0.999998" />
    </clipPath>
    <clipPath
       clipPathUnits="userSpaceOnUse"
       id="clipPath18771">
      <path
         d="m -157.18161,-285.03831 h 306 v 396 h -306 z"
         id="path18773"
         style="stroke-width:0.999998" />
    </clipPath>
  </defs>
  <g
     inkscape:label="sellos"
     inkscape:groupmode="layer"
     id="layer1"
     transform="translate(-119.47474,-125.56063)">
    <g
       id="g18789">
      <g
         id="g48694"
         transform="matrix(0.35277777,0,0,-0.35277777,122.43508,129.00514)"
         clip-path="url(#clipPath18771)">
        <path
           d="M 0,0 C 0.759,0 1.373,0.617 1.373,1.376 V 8.248 C 1.373,9.007 0.759,9.621 0,9.621 h -6.872 c -0.759,0 -1.376,-0.614 -1.376,-1.373 V 1.376 C -8.248,0.617 -7.631,0 -6.872,0 Z"
           style="fill:#05a1e6;fill-opacity:1;fill-rule:nonzero;stroke:none"
           id="path48696" />
      </g>
      <g
         id="g48698"
         transform="matrix(0.35277777,0,0,-0.35277777,122.43737,129.00832)"
         clip-path="url(#clipPath18767)">
        <path
           d="M 0,0 C 0.76,0 1.376,0.618 1.376,1.378 V 8.263 C 1.376,9.024 0.76,9.639 0,9.639 h -6.885 c -0.76,0 -1.379,-0.615 -1.379,-1.376 V 1.378 C -8.264,0.618 -7.645,0 -6.885,0 Z"
           style="fill:none;stroke:#231f20;stroke-width:0.268;stroke-linecap:butt;stroke-linejoin:miter;stroke-miterlimit:4;stroke-dasharray:none;stroke-opacity:1"
           id="path48700" />
      </g>
      <g
         id="g48702"
         transform="matrix(0.35277777,0,0,-0.35277777,121.40969,125.99687)"
         clip-path="url(#clipPath18763)">
        <path
           d="m 0,0 v 0 h 1.897 c 0.685,0 1.25,-0.556 1.25,-1.243 v -4.899 c 0,-0.687 -0.546,-1.241 -1.231,-1.241 H -1.46"
           style="fill:none;stroke:#231f20;stroke-width:0.268;stroke-linecap:butt;stroke-linejoin:miter;stroke-miterlimit:3.864;stroke-dasharray:none;stroke-opacity:1"
           id="path48704" />
      </g>
      <g
         id="g48706"
         transform="matrix(0.35277777,0,0,-0.35277777,121.08584,126.82515)"
         clip-path="url(#clipPath18759)">
        <path
           d="m 0,0 c 0.396,0 0.72,0.322 0.72,0.719 0,0.398 -0.324,0.72 -0.72,0.72 -0.397,0 -0.72,-0.322 -0.72,-0.72 C -0.72,0.322 -0.397,0 0,0"
           style="fill:#231f20;fill-opacity:1;fill-rule:nonzero;stroke:none"
           id="path48708" />
      </g>
      <g
         id="g48710"
         transform="matrix(0.35277777,0,0,-0.35277777,121.08584,127.1774)"
         clip-path="url(#clipPath18755)">
        <path
           d="M 0,0 C 1.643,0 2.974,0.769 2.974,1.717 2.974,2.667 1.643,3.435 0,3.435 -1.644,3.435 -2.976,2.667 -2.976,1.717 -2.976,0.769 -1.644,0 0,0 Z"
           style="fill:none;stroke:#231f20;stroke-width:0.268;stroke-linecap:butt;stroke-linejoin:miter;stroke-miterlimit:4;stroke-dasharray:none;stroke-opacity:1"
           id="path48712" />
      </g>
      <g
         id="g48714"
         transform="matrix(0.35277777,0,0,-0.35277777,120.22577,128.57973)"
         clip-path="url(#clipPath18751)">
        <path
           d="M 0,0 C 0.445,0 0.806,0.361 0.806,0.807 0.806,1.253 0.445,1.615 0,1.615 -0.445,1.615 -0.806,1.253 -0.806,0.807 -0.806,0.361 -0.445,0 0,0"
           style="fill:#231f20;fill-opacity:1;fill-rule:nonzero;stroke:none"
           id="path48716" />
      </g>
      <g
         id="g48718"
         transform="matrix(0.35277777,0,0,-0.35277777,121.37537,126.00946)"
         clip-path="url(#clipPath18747)">
        <path
           d="m 0,0 c 0,-0.473 0.367,-0.854 0.819,-0.854 0.254,0 0.481,0.12 0.631,0.308 M -1.641,0 c 0,-0.473 0.367,-0.854 0.82,-0.854 C -0.368,-0.854 0,-0.473 0,0 m 0.819,-0.854 c 0,-0.472 0.368,-0.853 0.821,-0.853 0.177,0 0.339,0.057 0.474,0.155 m -4.576,0.698 c 0,-0.472 0.368,-0.853 0.821,-0.853 0.453,0 0.82,0.381 0.82,0.853 m -2.263,0.295 c 0.15,-0.181 0.374,-0.295 0.622,-0.295 0.454,0 0.821,0.381 0.821,0.854 m -2.112,-1.555 c 0.132,-0.097 0.295,-0.152 0.47,-0.152 0.453,0 0.821,0.381 0.821,0.853 m 1.641,0 c 0,-0.472 0.367,-0.853 0.821,-0.853 0.453,0 0.819,0.381 0.819,0.853"
           style="fill:none;stroke:#231f20;stroke-width:0.219;stroke-linecap:butt;stroke-linejoin:miter;stroke-miterlimit:4;stroke-dasharray:none;stroke-opacity:1"
           id="path48720" />
      </g>
    </g>
  </g>
</svg>
