<?xml version="1.0" encoding="UTF-8" standalone="no"?>
<!-- Created with Inkscape (http://www.inkscape.org/) -->

<svg
   width="3.4949646mm"
   height="3.5004272mm"
   viewBox="0 0 3.4949646 3.5004272"
   version="1.1"
   id="svg72303"
   inkscape:version="1.2 (dc2aeda, 2022-05-15)"
   sodipodi:docname="plasmas.svg"
   xmlns:inkscape="http://www.inkscape.org/namespaces/inkscape"
   xmlns:sodipodi="http://sodipodi.sourceforge.net/DTD/sodipodi-0.dtd"
   xmlns="http://www.w3.org/2000/svg"
   xmlns:svg="http://www.w3.org/2000/svg">
  <sodipodi:namedview
     id="namedview72305"
     pagecolor="#ffffff"
     bordercolor="#000000"
     borderopacity="0.25"
     inkscape:showpageshadow="2"
     inkscape:pageopacity="0.0"
     inkscape:pagecheckerboard="0"
     inkscape:deskcolor="#d1d1d1"
     inkscape:document-units="mm"
     showgrid="false"
     inkscape:zoom="4.8448706"
     inkscape:cx="338.91514"
     inkscape:cy="488.66114"
     inkscape:window-width="1453"
     inkscape:window-height="1147"
     inkscape:window-x="0"
     inkscape:window-y="25"
     inkscape:window-maximized="0"
     inkscape:current-layer="layer1" />
  <defs
     id="defs72300">
    <clipPath
       clipPathUnits="userSpaceOnUse"
       id="clipPath81670">
      <path
         d="M -35.543398,-278.22791 H 270.45661 v 396 H -35.543398 Z"
         id="path81672"
         style="stroke-width:0.999998" />
    </clipPath>
    <clipPath
       clipPathUnits="userSpaceOnUse"
       id="clipPath81674">
      <path
         d="M -39.153498,-273.56069 H 266.84651 v 396 H -39.153498 Z"
         id="path81676"
         style="stroke-width:0.999998" />
    </clipPath>
    <clipPath
       clipPathUnits="userSpaceOnUse"
       id="clipPath81678">
      <path
         d="M -38.952499,-282.22779 H 267.04751 v 396 H -38.952499 Z"
         id="path81680"
         style="stroke-width:0.999998" />
    </clipPath>
    <clipPath
       clipPathUnits="userSpaceOnUse"
       id="clipPath81682">
      <path
         d="M -38.8847,-279.7758 H 267.11531 V 116.22421 H -38.8847 Z"
         id="path81684"
         style="stroke-width:0.999998" />
    </clipPath>
    <clipPath
       clipPathUnits="userSpaceOnUse"
       id="clipPath81686">
      <path
         d="M -38.895999,-280.5424 H 267.10401 v 396 H -38.895999 Z"
         id="path81688"
         style="stroke-width:0.999998" />
    </clipPath>
    <clipPath
       clipPathUnits="userSpaceOnUse"
       id="clipPath81690">
      <path
         d="M -41.860401,-275.84732 H 264.13961 v 396 H -41.860401 Z"
         id="path81692"
         style="stroke-width:0.999998" />
    </clipPath>
    <clipPath
       clipPathUnits="userSpaceOnUse"
       id="clipPath81694">
      <path
         d="M -42.437101,-273.55139 H 263.56291 v 396 H -42.437101 Z"
         id="path81696"
         style="stroke-width:0.999998" />
    </clipPath>
    <clipPath
       clipPathUnits="userSpaceOnUse"
       id="clipPath81698">
      <path
         d="M -42.4307,-273.5603 H 263.56931 V 122.43971 H -42.4307 Z"
         id="path81700"
         style="stroke-width:0.999998" />
    </clipPath>
  </defs>
  <g
     inkscape:label="sellos"
     inkscape:groupmode="layer"
     id="layer1"
     transform="translate(-78.994203,-129.60505)">
    <g
       id="g81732"
       inkscape:label="5">
      <g
         id="g48212"
         transform="matrix(0.35277777,0,0,-0.35277777,81.953509,133.05433)"
         clip-path="url(#clipPath81698)">
        <path
           d="M 0,0 C 0.76,0 1.376,0.616 1.376,1.375 V 8.247 C 1.376,9.006 0.76,9.621 0,9.621 h -6.871 c -0.759,0 -1.375,-0.615 -1.375,-1.374 V 1.375 C -8.246,0.616 -7.63,0 -6.871,0 Z"
           style="fill:#ed114e;fill-opacity:1;fill-rule:nonzero;stroke:none"
           id="path48214" />
      </g>
      <g
         id="g48216"
         transform="matrix(0.35277777,0,0,-0.35277777,81.955767,133.05747)"
         clip-path="url(#clipPath81694)">
        <path
           d="M 0,0 C 0.762,0 1.378,0.617 1.378,1.378 V 8.263 C 1.378,9.023 0.762,9.639 0,9.639 h -6.884 c -0.761,0 -1.377,-0.616 -1.377,-1.376 V 1.378 C -8.261,0.617 -7.645,0 -6.884,0 Z"
           style="fill:none;stroke:#231f20;stroke-width:0.268;stroke-linecap:butt;stroke-linejoin:miter;stroke-miterlimit:4;stroke-dasharray:none;stroke-opacity:1"
           id="path48218" />
      </g>
      <g
         id="g48220"
         transform="matrix(0.35277777,0,0,-0.35277777,81.75232,132.24752)"
         clip-path="url(#clipPath81690)">
        <path
           d="M 0,0 H 0.389 C 1.25,0 1.946,-0.514 1.946,-1.15 1.946,-1.783 1.25,-2.298 0.389,-2.298 H 0 c -0.86,0 -1.557,0.515 -1.557,1.148 C -1.557,-0.514 -0.86,0 0,0 Z m -7.502,-1.145 h 5.004"
           style="fill:none;stroke:#231f20;stroke-width:0.268;stroke-linecap:butt;stroke-linejoin:miter;stroke-miterlimit:3.864;stroke-dasharray:none;stroke-opacity:1"
           id="path48222" />
      </g>
      <g
         id="g48224"
         transform="matrix(0.35277777,0,0,-0.35277777,80.706545,130.5912)"
         clip-path="url(#clipPath81686)">
        <path
           d="M 0,0 V 0.204 0 c 0,-0.437 0.368,-0.793 0.822,-0.793 0.454,0 0.822,0.356 0.822,0.793 L 1.643,0.204 1.644,0 c 0,-0.437 0.367,-0.793 0.822,-0.793 0.453,0 0.822,0.356 0.822,0.793 V 0.204 0 c 0,-0.437 0.367,-0.793 0.821,-0.793 0.454,0 0.821,0.356 0.821,0.793 V 0.204 M 0.009,0.19 c 0.452,0 0.82,0.356 0.82,0.794 V 1.187 0.984 c 0,-0.438 0.368,-0.794 0.822,-0.794 0.453,0 0.823,0.356 0.823,0.794 L 2.472,1.187 2.474,0.984 c 0,-0.438 0.368,-0.794 0.82,-0.794 0.454,0 0.822,0.356 0.822,0.794 V 1.187 0.984 C 4.116,0.546 4.485,0.19 4.938,0.19 M 1.635,-1.807 v -0.295 m 1.659,0.295 v -0.295 m -2.896,0.403 c 0.257,0.134 0.431,0.395 0.431,0.697 v 0.203 -0.203 c 0,-0.438 0.368,-0.794 0.822,-0.794 0.453,0 0.823,0.356 0.823,0.794 l -0.002,0.203 0.002,-0.203 c 0,-0.438 0.368,-0.794 0.82,-0.794 0.454,0 0.822,0.356 0.822,0.794 v 0.203 -0.203 c 0,-0.218 0.092,-0.416 0.241,-0.56 l 0.2,-0.093 M 0.929,2.578 c 0.143,-0.239 0.408,-0.4 0.714,-0.4 0.331,0 0.613,0.189 0.746,0.458 M 2.545,2.631 C 2.678,2.363 2.96,2.178 3.288,2.178 c 0.284,0 0.533,0.139 0.682,0.351 M 3.145,-4.737 c 0,-0.402 0.338,-0.726 0.752,-0.726 0.26,0 0.488,0.127 0.623,0.321 m -2.751,0 c 0.136,-0.194 0.365,-0.321 0.626,-0.321 0.414,0 0.75,0.324 0.75,0.726 m 0.752,-0.726 c 0,-0.401 0.337,-0.725 0.752,-0.725 0.06,0 0.117,0.006 0.171,0.017 M 1.482,-6.174 c 0.052,-0.008 0.106,-0.014 0.159,-0.014 0.414,0 0.754,0.324 0.754,0.725 m 0,0 c 0,-0.401 0.335,-0.725 0.75,-0.725 0.416,0 0.752,0.324 0.752,0.725 M 3.145,-6.188 c 0,-0.401 0.338,-0.726 0.752,-0.726 0.416,0 0.752,0.325 0.752,0.726 m -3.008,0 c 0,-0.401 0.337,-0.726 0.754,-0.726 0.414,0 0.75,0.325 0.75,0.726"
           style="fill:none;stroke:#231f20;stroke-width:0.219;stroke-linecap:butt;stroke-linejoin:miter;stroke-miterlimit:4;stroke-dasharray:none;stroke-opacity:1"
           id="path48226" />
      </g>
      <g
         id="g48228"
         transform="matrix(0.35277777,0,0,-0.35277777,80.702559,130.86164)"
         clip-path="url(#clipPath81682)">
        <path
           d="m 0,0 c 0,-0.762 0.618,-1.379 1.38,-1.379 h 2.169 c 0.762,0 1.38,0.617 1.38,1.379 v 2.049 c 0,0.763 -0.618,1.379 -1.38,1.379 H 1.38 C 0.618,3.428 0,2.812 0,2.049 Z"
           style="fill:none;stroke:#231f20;stroke-width:0.268;stroke-linecap:butt;stroke-linejoin:miter;stroke-miterlimit:4;stroke-dasharray:none;stroke-opacity:1"
           id="path48230" />
      </g>
      <g
         id="g48232"
         transform="matrix(0.35277777,0,0,-0.35277777,80.726477,129.99663)"
         clip-path="url(#clipPath81678)">
        <path
           d="m 0,0 c 0.117,-0.302 0.417,-0.518 0.769,-0.518 0.453,0 0.821,0.358 0.821,0.798 V 0.486 0.28 c 0,-0.44 0.368,-0.798 0.822,-0.798 0.454,0 0.821,0.358 0.821,0.798 V 0.486 0.28 c 0,-0.44 0.368,-0.798 0.821,-0.798 0.338,0 0.628,0.198 0.754,0.482"
           style="fill:none;stroke:#231f20;stroke-width:0.219;stroke-linecap:butt;stroke-linejoin:miter;stroke-miterlimit:4;stroke-dasharray:none;stroke-opacity:1"
           id="path48234" />
      </g>
      <g
         id="g48236"
         transform="matrix(0.35277777,0,0,-0.35277777,80.797385,133.05419)"
         clip-path="url(#clipPath81674)">
        <path
           d="M 0,0 C 0.628,0 1.138,0.512 1.138,1.142 1.138,1.772 0.628,2.284 0,2.284 H -3.667 C -4.295,2.284 -4.804,1.772 -4.804,1.142 -4.804,0.512 -4.295,0 -3.667,0 Z"
           style="fill:none;stroke:#231f20;stroke-width:0.268;stroke-linecap:butt;stroke-linejoin:miter;stroke-miterlimit:4;stroke-dasharray:none;stroke-opacity:1"
           id="path48238" />
      </g>
      <g
         id="g48240"
         transform="matrix(0.35277777,0,0,-0.35277777,79.523822,131.4077)"
         clip-path="url(#clipPath81670)">
        <path
           d="M 0,0 C 0.254,0.496 0.928,1.319 2.266,1.089 2.17,0.605 1.868,-0.28 0,0 Z"
           style="fill:none;stroke:#231f20;stroke-width:0.268;stroke-linecap:butt;stroke-linejoin:miter;stroke-miterlimit:3.864;stroke-dasharray:none;stroke-opacity:1"
           id="path48242" />
      </g>
      <g
         id="g48244"
         transform="matrix(0.35277777,0,0,-0.35277777,79.570424,131.37697)">
        <path
           d="M 0,0 2.067,0.95"
           style="fill:none;stroke:#231f20;stroke-width:0.152;stroke-linecap:butt;stroke-linejoin:miter;stroke-miterlimit:3.864;stroke-dasharray:none;stroke-opacity:1"
           id="path48246" />
      </g>
    </g>
  </g>
</svg>
