<?xml version="1.0" encoding="UTF-8" standalone="no"?>
<!-- Created with Inkscape (http://www.inkscape.org/) -->

<svg
   width="4.0738778mm"
   height="2.0344417mm"
   viewBox="0 0 4.0738778 2.0344417"
   version="1.1"
   id="svg72303"
   xmlns="http://www.w3.org/2000/svg"
   xmlns:svg="http://www.w3.org/2000/svg">
  <defs
     id="defs72300">
    <clipPath
       clipPathUnits="userSpaceOnUse"
       id="clipPath24990">
      <path
         d="M -239.22621,-305.07311 H 66.773797 V 90.926892 H -239.22621 Z"
         id="path24992"
         style="stroke-width:0.999998" />
    </clipPath>
    <clipPath
       clipPathUnits="userSpaceOnUse"
       id="clipPath24994">
      <path
         d="M -239.22621,-307.15791 H 66.773797 V 88.842095 H -239.22621 Z"
         id="path24996"
         style="stroke-width:0.999998" />
    </clipPath>
  </defs>
  <g
     id="layer9"
     transform="translate(-151.37883,-162.66592)">
    <g
       id="g26428"
       transform="translate(2.3841884e-4,42.663922)">
      <g
         id="g4728">
        <g
           id="g47956"
           transform="matrix(0.35277777,0,0,-0.35277777,151.37859,121.20184)"
           clip-path="url(#clipPath24994)">
          <path
             d="m 0,0 c 0,-0.157 0.127,-0.281 0.281,-0.281 h 10.984 c 0.155,0 0.283,0.124 0.283,0.281 v 0.612 c 0,0.156 -0.128,0.283 -0.283,0.283 H 0.281 C 0.127,0.895 0,0.768 0,0.612 Z"
             style="fill:#231f20;fill-opacity:1;fill-rule:nonzero;stroke:none"
             id="path47958" />
        </g>
        <g
           id="g47960"
           transform="matrix(0.35277777,0,0,-0.35277777,151.37859,121.93731)"
           clip-path="url(#clipPath24990)">
          <path
             d="m 0,0 c 0,-0.158 0.127,-0.281 0.281,-0.281 h 10.984 c 0.155,0 0.283,0.123 0.283,0.281 v 0.613 c 0,0.157 -0.128,0.282 -0.283,0.282 H 0.281 C 0.127,0.895 0,0.77 0,0.613 Z"
             style="fill:#231f20;fill-opacity:1;fill-rule:nonzero;stroke:none"
             id="path47962" />
        </g>
        <rect
           style="fill:#838383;fill-opacity:0;stroke-width:0.0600231"
           id="rect800-7"
           width="4.0728192"
           height="2.0344355"
           x="151.37877"
           y="120.002" />
      </g>
    </g>
  </g>
</svg>
