<?xml version="1.0" encoding="UTF-8" standalone="no"?>
<!-- Created with Inkscape (http://www.inkscape.org/) -->

<svg
   width="4.073525mm"
   height="2.0355976mm"
   viewBox="0 0 4.073525 2.0355976"
   version="1.1"
   id="svg72303"
   xmlns="http://www.w3.org/2000/svg"
   xmlns:svg="http://www.w3.org/2000/svg">
  <defs
     id="defs72300">
    <clipPath
       clipPathUnits="userSpaceOnUse"
       id="clipPath24962">
      <path
         d="M -239.2272,-285.54461 H 66.772805 v 396 H -239.2272 Z"
         id="path24964"
         style="stroke-width:0.999998" />
    </clipPath>
    <clipPath
       clipPathUnits="userSpaceOnUse"
       id="clipPath24966">
      <path
         d="M -239.2272,-283.46081 H 66.772805 V 112.5392 H -239.2272 Z"
         id="path24968"
         style="stroke-width:0.999998" />
    </clipPath>
    <clipPath
       clipPathUnits="userSpaceOnUse"
       id="clipPath24970">
      <path
         d="M -247.4638,-288.02841 H 58.536203 v 396 H -247.4638 Z"
         id="path24972"
         style="stroke-width:0.999998" />
    </clipPath>
    <clipPath
       clipPathUnits="userSpaceOnUse"
       id="clipPath24974">
      <path
         d="M -244.3788,-288.02841 H 61.621205 v 396 H -244.3788 Z"
         id="path24976"
         style="stroke-width:0.999998" />
    </clipPath>
  </defs>
  <g
     id="layer9"
     transform="translate(-151.37918,-170.28911)">
    <g
       id="g26446"
       transform="translate(2.3841884e-4,42.663922)">
      <g
         id="g47976"
         transform="matrix(0.35277777,0,0,-0.35277777,153.19631,127.9503)"
         clip-path="url(#clipPath24974)">
        <path
           d="m 0,0 c 0,-0.509 -0.413,-0.921 -0.919,-0.921 -0.509,0 -0.921,0.412 -0.921,0.921 0,0.505 0.412,0.918 0.921,0.918 C -0.413,0.918 0,0.505 0,0"
           style="fill:#231f20;fill-opacity:1;fill-rule:nonzero;stroke:none"
           id="path47978" />
      </g>
      <g
         id="g47980"
         transform="matrix(0.35277777,0,0,-0.35277777,154.28463,127.9503)"
         clip-path="url(#clipPath24970)">
        <path
           d="m 0,0 c 0,-0.509 -0.413,-0.921 -0.922,-0.921 -0.509,0 -0.921,0.412 -0.921,0.921 0,0.505 0.412,0.918 0.921,0.918 C -0.413,0.918 0,0.505 0,0"
           style="fill:#231f20;fill-opacity:1;fill-rule:nonzero;stroke:none"
           id="path47982" />
      </g>
      <g
         id="g47984"
         transform="matrix(0.35277777,0,0,-0.35277777,151.37894,129.56165)"
         clip-path="url(#clipPath24966)">
        <path
           d="m 0,0 c 0,-0.156 0.126,-0.281 0.281,-0.281 h 10.982 c 0.16,0 0.284,0.125 0.284,0.281 v 0.616 c 0,0.153 -0.124,0.282 -0.284,0.282 H 0.281 C 0.126,0.898 0,0.769 0,0.616 Z"
           style="fill:#231f20;fill-opacity:1;fill-rule:nonzero;stroke:none"
           id="path47986" />
      </g>
      <g
         id="g47988"
         transform="matrix(0.35277777,0,0,-0.35277777,151.37894,128.82653)"
         clip-path="url(#clipPath24962)">
        <path
           d="m 0,0 c 0,-0.156 0.126,-0.281 0.281,-0.281 h 10.982 c 0.16,0 0.284,0.125 0.284,0.281 v 0.616 c 0,0.153 -0.124,0.28 -0.284,0.28 H 0.281 C 0.126,0.896 0,0.769 0,0.616 Z"
           style="fill:#231f20;fill-opacity:1;fill-rule:nonzero;stroke:none"
           id="path47990" />
      </g>
      <rect
         style="fill:#838383;fill-opacity:0;stroke-width:0.0600231"
         id="rect800-1"
         width="4.0728192"
         height="2.0344355"
         x="151.37929"
         y="127.62518" />
    </g>
  </g>
</svg>
