<?xml version="1.0" encoding="UTF-8" standalone="no"?>
<!-- Created with Inkscape (http://www.inkscape.org/) -->

<svg
   width="4.0735168mm"
   height="2.0343323mm"
   viewBox="0 0 4.0735168 2.0343323"
   version="1.1"
   id="svg72303"
   inkscape:version="1.2 (dc2aeda, 2022-05-15)"
   sodipodi:docname="plasmas.svg"
   xmlns:inkscape="http://www.inkscape.org/namespaces/inkscape"
   xmlns:sodipodi="http://sodipodi.sourceforge.net/DTD/sodipodi-0.dtd"
   xmlns="http://www.w3.org/2000/svg"
   xmlns:svg="http://www.w3.org/2000/svg">
  <sodipodi:namedview
     id="namedview72305"
     pagecolor="#ffffff"
     bordercolor="#000000"
     borderopacity="0.25"
     inkscape:showpageshadow="2"
     inkscape:pageopacity="0.0"
     inkscape:pagecheckerboard="0"
     inkscape:deskcolor="#d1d1d1"
     inkscape:document-units="mm"
     showgrid="false"
     inkscape:zoom="4.8448706"
     inkscape:cx="338.91514"
     inkscape:cy="488.66114"
     inkscape:window-width="1453"
     inkscape:window-height="1147"
     inkscape:window-x="0"
     inkscape:window-y="25"
     inkscape:window-maximized="0"
     inkscape:current-layer="layer1" />
  <defs
     id="defs72300">
    <clipPath
       clipPathUnits="userSpaceOnUse"
       id="clipPath24962">
      <path
         d="M -239.2272,-285.54461 H 66.772805 v 396 H -239.2272 Z"
         id="path24964"
         style="stroke-width:0.999998" />
    </clipPath>
    <clipPath
       clipPathUnits="userSpaceOnUse"
       id="clipPath24966">
      <path
         d="M -239.2272,-283.46081 H 66.772805 V 112.5392 H -239.2272 Z"
         id="path24968"
         style="stroke-width:0.999998" />
    </clipPath>
    <clipPath
       clipPathUnits="userSpaceOnUse"
       id="clipPath24970">
      <path
         d="M -247.4638,-288.02841 H 58.536203 v 396 H -247.4638 Z"
         id="path24972"
         style="stroke-width:0.999998" />
    </clipPath>
    <clipPath
       clipPathUnits="userSpaceOnUse"
       id="clipPath24974">
      <path
         d="M -244.3788,-288.02841 H 61.621205 v 396 H -244.3788 Z"
         id="path24976"
         style="stroke-width:0.999998" />
    </clipPath>
  </defs>
  <g
     inkscape:label="sellos"
     inkscape:groupmode="layer"
     id="layer1"
     transform="translate(-151.37894,-127.62645)">
    <g
       id="g26446">
      <g
         id="g47976"
         transform="matrix(0.35277777,0,0,-0.35277777,153.19631,127.9503)"
         clip-path="url(#clipPath24974)">
        <path
           d="m 0,0 c 0,-0.509 -0.413,-0.921 -0.919,-0.921 -0.509,0 -0.921,0.412 -0.921,0.921 0,0.505 0.412,0.918 0.921,0.918 C -0.413,0.918 0,0.505 0,0"
           style="fill:#231f20;fill-opacity:1;fill-rule:nonzero;stroke:none"
           id="path47978" />
      </g>
      <g
         id="g47980"
         transform="matrix(0.35277777,0,0,-0.35277777,154.28463,127.9503)"
         clip-path="url(#clipPath24970)">
        <path
           d="m 0,0 c 0,-0.509 -0.413,-0.921 -0.922,-0.921 -0.509,0 -0.921,0.412 -0.921,0.921 0,0.505 0.412,0.918 0.921,0.918 C -0.413,0.918 0,0.505 0,0"
           style="fill:#231f20;fill-opacity:1;fill-rule:nonzero;stroke:none"
           id="path47982" />
      </g>
      <g
         id="g47984"
         transform="matrix(0.35277777,0,0,-0.35277777,151.37894,129.56165)"
         clip-path="url(#clipPath24966)">
        <path
           d="m 0,0 c 0,-0.156 0.126,-0.281 0.281,-0.281 h 10.982 c 0.16,0 0.284,0.125 0.284,0.281 v 0.616 c 0,0.153 -0.124,0.282 -0.284,0.282 H 0.281 C 0.126,0.898 0,0.769 0,0.616 Z"
           style="fill:#231f20;fill-opacity:1;fill-rule:nonzero;stroke:none"
           id="path47986" />
      </g>
      <g
         id="g47988"
         transform="matrix(0.35277777,0,0,-0.35277777,151.37894,128.82653)"
         clip-path="url(#clipPath24962)">
        <path
           d="m 0,0 c 0,-0.156 0.126,-0.281 0.281,-0.281 h 10.982 c 0.16,0 0.284,0.125 0.284,0.281 v 0.616 c 0,0.153 -0.124,0.28 -0.284,0.28 H 0.281 C 0.126,0.896 0,0.769 0,0.616 Z"
           style="fill:#231f20;fill-opacity:1;fill-rule:nonzero;stroke:none"
           id="path47990" />
      </g>
    </g>
  </g>
</svg>
