<?xml version="1.0" encoding="UTF-8" standalone="no"?>
<!-- Created with Inkscape (http://www.inkscape.org/) -->

<svg
   width="4.0728192mm"
   height="2.0344355mm"
   viewBox="0 0 4.0728192 2.0344355"
   version="1.1"
   id="svg72303"
   xmlns="http://www.w3.org/2000/svg"
   xmlns:svg="http://www.w3.org/2000/svg">
  <defs
     id="defs72300">
    <clipPath
       clipPathUnits="userSpaceOnUse"
       id="clipPath25018">
      <path
         d="m -197.22169,-309.35019 h 306 V 86.649809 h -306 z"
         id="path25020"
         style="stroke-width:0.999998" />
    </clipPath>
    <clipPath
       clipPathUnits="userSpaceOnUse"
       id="clipPath25022-1">
      <path
         d="m -193.7984,-309.35019 h 306 V 86.649809 h -306 z"
         id="path25024-8"
         style="stroke-width:0.999998" />
    </clipPath>
    <clipPath
       clipPathUnits="userSpaceOnUse"
       id="clipPath25026-8">
      <path
         d="M -190.37509,-309.35019 H 115.62492 V 86.649809 h -306.00001 z"
         id="path25028-3"
         style="stroke-width:0.999998" />
    </clipPath>
  </defs>
  <g
     id="layer9"
     transform="translate(-151.35409,-138.9929)">
    <g
       id="g26374"
       transform="translate(18.398369,20.237636)">
      <g
         id="g47932"
         transform="matrix(0.35277777,0,0,-0.35277777,136.56033,120.42845)"
         clip-path="url(#clipPath25018)">
        <path
           d="m 0,0 c 0,-0.567 -0.458,-1.024 -1.021,-1.024 -0.563,0 -1.022,0.457 -1.022,1.024 0,0.56 0.459,1.018 1.022,1.018 C -0.458,1.018 0,0.56 0,0"
           style="fill:#231f20;fill-opacity:1;fill-rule:nonzero;stroke:none"
           id="path47934" />
        <rect
           style="fill:#838383;fill-opacity:0;stroke-width:0.170144"
           id="rect800-35"
           width="11.545"
           height="5.7669039"
           x="-10.217789"
           y="-4.7429037"
           transform="scale(1,-1)" />
        <g
           id="g47924"
           transform="translate(-6.8465992)"
           clip-path="url(#clipPath25026-8)">
          <path
             d="m 0,0 c 0,-0.567 -0.458,-1.024 -1.022,-1.024 -0.568,0 -1.027,0.457 -1.027,1.024 0,0.56 0.459,1.018 1.027,1.018 C -0.458,1.018 0,0.56 0,0"
             style="fill:#231f20;fill-opacity:1;fill-rule:nonzero;stroke:none"
             id="path47926" />
        </g>
        <g
           id="g47928"
           transform="translate(-3.4232825)"
           clip-path="url(#clipPath25022-1)">
          <path
             d="m 0,0 c 0,-0.567 -0.457,-1.024 -1.022,-1.024 -0.566,0 -1.022,0.457 -1.022,1.024 0,0.56 0.456,1.018 1.022,1.018 C -0.457,1.018 0,0.56 0,0"
             style="fill:#231f20;fill-opacity:1;fill-rule:nonzero;stroke:none"
             id="path47930" />
        </g>
      </g>
    </g>
  </g>
</svg>
