<?xml version="1.0" encoding="UTF-8" standalone="no"?>
<!-- Created with Inkscape (http://www.inkscape.org/) -->

<svg
   width="4.0728192mm"
   height="2.0344355mm"
   viewBox="0 0 4.0728192 2.0344355"
   version="1.1"
   id="svg72303"
   xmlns="http://www.w3.org/2000/svg"
   xmlns:svg="http://www.w3.org/2000/svg">
  <defs
     id="defs72300">
    <clipPath
       clipPathUnits="userSpaceOnUse"
       id="clipPath25070">
      <path
         d="m -198.3185,-300.7242 h 306 V 95.275806 h -306 z"
         id="path25072"
         style="stroke-width:0.999998" />
    </clipPath>
    <clipPath
       clipPathUnits="userSpaceOnUse"
       id="clipPath25074">
      <path
         d="m -195.23449,-300.7242 h 306 V 95.275806 h -306 z"
         id="path25076"
         style="stroke-width:0.999998" />
    </clipPath>
    <clipPath
       clipPathUnits="userSpaceOnUse"
       id="clipPath25078">
      <path
         d="m -192.1534,-300.7242 h 306 V 95.275806 h -306 z"
         id="path25080"
         style="stroke-width:0.999998" />
    </clipPath>
    <clipPath
       clipPathUnits="userSpaceOnUse"
       id="clipPath25082">
      <path
         d="m -189.06939,-300.7242 h 306 V 95.275806 h -306 z"
         id="path25084"
         style="stroke-width:0.999998" />
    </clipPath>
  </defs>
  <g
     id="layer9"
     transform="translate(-151.35409,-141.96568)">
    <g
       id="g26384"
       transform="translate(18.399236,20.192438)">
      <g
         id="g47868"
         transform="matrix(0.35277777,0,0,-0.35277777,133.68438,123.47151)"
         clip-path="url(#clipPath25082)">
        <path
           d="m 0,0 c 0,-0.51 -0.41,-0.923 -0.917,-0.923 -0.509,0 -0.923,0.413 -0.923,0.923 0,0.506 0.414,0.916 0.923,0.916 C -0.41,0.916 0,0.506 0,0"
           style="fill:#231f20;fill-opacity:1;fill-rule:nonzero;stroke:none"
           id="path47870" />
      </g>
      <g
         id="g47872"
         transform="matrix(0.35277777,0,0,-0.35277777,134.77235,123.47151)"
         clip-path="url(#clipPath25078)">
        <path
           d="m 0,0 c 0,-0.51 -0.413,-0.923 -0.921,-0.923 -0.507,0 -0.919,0.413 -0.919,0.923 0,0.506 0.412,0.916 0.919,0.916 C -0.413,0.916 0,0.506 0,0"
           style="fill:#231f20;fill-opacity:1;fill-rule:nonzero;stroke:none"
           id="path47874" />
      </g>
      <g
         id="g47876"
         transform="matrix(0.35277777,0,0,-0.35277777,135.85929,123.47151)"
         clip-path="url(#clipPath25074)">
        <path
           d="m 0,0 c 0,-0.51 -0.411,-0.923 -0.92,-0.923 -0.508,0 -0.918,0.413 -0.918,0.923 0,0.506 0.41,0.916 0.918,0.916 C -0.411,0.916 0,0.506 0,0"
           style="fill:#231f20;fill-opacity:1;fill-rule:nonzero;stroke:none"
           id="path47878" />
      </g>
      <rect
         style="fill:#838383;fill-opacity:0;stroke-width:0.0600231"
         id="rect800-35-6"
         width="4.0728192"
         height="2.0344355"
         x="132.95485"
         y="121.77324" />
      <g
         id="g47880"
         transform="matrix(0.35277777,0,0,-0.35277777,136.94726,123.47151)"
         clip-path="url(#clipPath25070)">
        <path
           d="m 0,0 c 0,-0.51 -0.412,-0.923 -0.921,-0.923 -0.509,0 -0.921,0.413 -0.921,0.923 0,0.506 0.412,0.916 0.921,0.916 C -0.412,0.916 0,0.506 0,0"
           style="fill:#231f20;fill-opacity:1;fill-rule:nonzero;stroke:none"
           id="path47882" />
      </g>
    </g>
  </g>
</svg>
