<?xml version="1.0" encoding="UTF-8" standalone="no"?>
<!-- Created with Inkscape (http://www.inkscape.org/) -->

<svg
   width="4.0731659mm"
   height="1.2984619mm"
   viewBox="0 0 4.0731659 1.2984619"
   version="1.1"
   id="svg72303"
   inkscape:version="1.2 (dc2aeda, 2022-05-15)"
   sodipodi:docname="plasmas.svg"
   xmlns:inkscape="http://www.inkscape.org/namespaces/inkscape"
   xmlns:sodipodi="http://sodipodi.sourceforge.net/DTD/sodipodi-0.dtd"
   xmlns="http://www.w3.org/2000/svg"
   xmlns:svg="http://www.w3.org/2000/svg">
  <sodipodi:namedview
     id="namedview72305"
     pagecolor="#ffffff"
     bordercolor="#000000"
     borderopacity="0.25"
     inkscape:showpageshadow="2"
     inkscape:pageopacity="0.0"
     inkscape:pagecheckerboard="0"
     inkscape:deskcolor="#d1d1d1"
     inkscape:document-units="mm"
     showgrid="false"
     inkscape:zoom="4.8448706"
     inkscape:cx="338.91514"
     inkscape:cy="488.66114"
     inkscape:window-width="1453"
     inkscape:window-height="1147"
     inkscape:window-x="0"
     inkscape:window-y="25"
     inkscape:window-maximized="0"
     inkscape:current-layer="layer1" />
  <defs
     id="defs72300">
    <clipPath
       clipPathUnits="userSpaceOnUse"
       id="clipPath25054">
      <path
         d="m -187.0009,-281.90782 h 306.00001 v 396 H -187.0009 Z"
         id="path25056"
         style="stroke-width:0.999998" />
    </clipPath>
    <clipPath
       clipPathUnits="userSpaceOnUse"
       id="clipPath25058">
      <path
         d="M -193.69381,-284.39151 H 112.3062 V 111.6085 h -306.00001 z"
         id="path25060"
         style="stroke-width:0.999998" />
    </clipPath>
  </defs>
  <g
     inkscape:label="sellos"
     inkscape:groupmode="layer"
     id="layer1"
     transform="translate(-132.95467,-128.90983)">
    <g
       id="g26390">
      <g
         id="g47892"
         transform="matrix(0.35277777,0,0,-0.35277777,135.31577,129.23332)"
         clip-path="url(#clipPath25058)">
        <path
           d="m 0,0 c 0,-0.51 -0.411,-0.923 -0.921,-0.923 -0.509,0 -0.92,0.413 -0.92,0.923 0,0.505 0.411,0.917 0.92,0.917 C -0.411,0.917 0,0.505 0,0"
           style="fill:#231f20;fill-opacity:1;fill-rule:nonzero;stroke:none"
           id="path47894" />
      </g>
      <g
         id="g47896"
         transform="matrix(0.35277777,0,0,-0.35277777,132.95466,130.10951)"
         clip-path="url(#clipPath25054)">
        <path
           d="m 0,0 c 0,-0.156 0.124,-0.28 0.281,-0.28 h 10.985 c 0.154,0 0.28,0.124 0.28,0.28 v 0.614 c 0,0.158 -0.126,0.282 -0.28,0.282 H 0.281 C 0.124,0.896 0,0.772 0,0.614 Z"
           style="fill:#231f20;fill-opacity:1;fill-rule:nonzero;stroke:none"
           id="path47898" />
      </g>
    </g>
  </g>
</svg>
