<?xml version="1.0" encoding="UTF-8" standalone="no"?>
<!-- Created with Inkscape (http://www.inkscape.org/) -->

<svg
   width="4.0731764mm"
   height="2.0344443mm"
   viewBox="0 0 4.0731764 2.0344443"
   version="1.1"
   id="svg72303"
   xmlns="http://www.w3.org/2000/svg"
   xmlns:svg="http://www.w3.org/2000/svg">
  <defs
     id="defs72300">
    <clipPath
       clipPathUnits="userSpaceOnUse"
       id="clipPath25054">
      <path
         d="m -187.0009,-281.90782 h 306.00001 v 396 H -187.0009 Z"
         id="path25056"
         style="stroke-width:0.999998" />
    </clipPath>
    <clipPath
       clipPathUnits="userSpaceOnUse"
       id="clipPath25058">
      <path
         d="M -193.69381,-284.39151 H 112.3062 V 111.6085 h -306.00001 z"
         id="path25060"
         style="stroke-width:0.999998" />
    </clipPath>
  </defs>
  <g
     id="layer9"
     transform="translate(-151.35392,-148.01936)">
    <g
       id="g26390"
       transform="translate(18.399257,19.84552)">
      <g
         id="g47892"
         transform="matrix(0.35277777,0,0,-0.35277777,135.31577,129.23332)"
         clip-path="url(#clipPath25058)">
        <path
           d="m 0,0 c 0,-0.51 -0.411,-0.923 -0.921,-0.923 -0.509,0 -0.92,0.413 -0.92,0.923 0,0.505 0.411,0.917 0.92,0.917 C -0.411,0.917 0,0.505 0,0"
           style="fill:#231f20;fill-opacity:1;fill-rule:nonzero;stroke:none"
           id="path47894" />
      </g>
      <g
         id="g47896"
         transform="matrix(0.35277777,0,0,-0.35277777,132.95466,130.10951)"
         clip-path="url(#clipPath25054)">
        <path
           d="m 0,0 c 0,-0.156 0.124,-0.28 0.281,-0.28 h 10.985 c 0.154,0 0.28,0.124 0.28,0.28 v 0.614 c 0,0.158 -0.126,0.282 -0.28,0.282 H 0.281 C 0.124,0.896 0,0.772 0,0.614 Z"
           style="fill:#231f20;fill-opacity:1;fill-rule:nonzero;stroke:none"
           id="path47898" />
      </g>
      <rect
         style="fill:#838383;fill-opacity:0;stroke-width:0.0600231"
         id="rect800-35-9"
         width="4.0728192"
         height="2.0344355"
         x="132.95502"
         y="128.17384" />
    </g>
  </g>
</svg>
