<?xml version="1.0" encoding="UTF-8" standalone="no"?>
<!-- Created with Inkscape (http://www.inkscape.org/) -->

<svg
   width="4.0738831mm"
   height="1.2988586mm"
   viewBox="0 0 4.0738831 1.2988586"
   version="1.1"
   id="svg72303"
   inkscape:version="1.2 (dc2aeda, 2022-05-15)"
   sodipodi:docname="plasmas.svg"
   xmlns:inkscape="http://www.inkscape.org/namespaces/inkscape"
   xmlns:sodipodi="http://sodipodi.sourceforge.net/DTD/sodipodi-0.dtd"
   xmlns="http://www.w3.org/2000/svg"
   xmlns:svg="http://www.w3.org/2000/svg">
  <sodipodi:namedview
     id="namedview72305"
     pagecolor="#ffffff"
     bordercolor="#000000"
     borderopacity="0.25"
     inkscape:showpageshadow="2"
     inkscape:pageopacity="0.0"
     inkscape:pagecheckerboard="0"
     inkscape:deskcolor="#d1d1d1"
     inkscape:document-units="mm"
     showgrid="false"
     inkscape:zoom="4.8448706"
     inkscape:cx="338.91514"
     inkscape:cy="488.66114"
     inkscape:window-width="1453"
     inkscape:window-height="1147"
     inkscape:window-x="0"
     inkscape:window-y="25"
     inkscape:window-maximized="0"
     inkscape:current-layer="layer1" />
  <defs
     id="defs72300">
    <clipPath
       clipPathUnits="userSpaceOnUse"
       id="clipPath24998">
      <path
         d="M -239.22621,-315.0421 H 66.773797 V 80.957897 H -239.22621 Z"
         id="path25000"
         style="stroke-width:0.999998" />
    </clipPath>
    <clipPath
       clipPathUnits="userSpaceOnUse"
       id="clipPath25002">
      <path
         d="M -250.54299,-317.52491 H 55.457012 V 78.475087 H -250.54299 Z"
         id="path25004"
         style="stroke-width:0.999998" />
    </clipPath>
    <clipPath
       clipPathUnits="userSpaceOnUse"
       id="clipPath25006">
      <path
         d="M -247.4638,-317.52491 H 58.536203 V 78.475087 H -247.4638 Z"
         id="path25008"
         style="stroke-width:0.999998" />
    </clipPath>
    <clipPath
       clipPathUnits="userSpaceOnUse"
       id="clipPath25010">
      <path
         d="M -244.38101,-317.52491 H 61.618994 V 78.475087 H -244.38101 Z"
         id="path25012"
         style="stroke-width:0.999998" />
    </clipPath>
    <clipPath
       clipPathUnits="userSpaceOnUse"
       id="clipPath25014">
      <path
         d="M -241.29819,-317.52491 H 64.701813 V 78.475087 H -241.29819 Z"
         id="path25016"
         style="stroke-width:0.999998" />
    </clipPath>
  </defs>
  <g
     inkscape:label="sellos"
     inkscape:groupmode="layer"
     id="layer1"
     transform="translate(-151.37859,-117.22075)">
    <g
       id="g26422">
      <g
         id="g47936"
         transform="matrix(0.35277777,0,0,-0.35277777,152.10954,117.54459)"
         clip-path="url(#clipPath25014)">
        <path
           d="m 0,0 c 0,-0.509 -0.413,-0.922 -0.922,-0.922 -0.504,0 -0.919,0.413 -0.919,0.922 0,0.506 0.415,0.918 0.919,0.918 C -0.413,0.918 0,0.506 0,0"
           style="fill:#231f20;fill-opacity:1;fill-rule:nonzero;stroke:none"
           id="path47938" />
      </g>
      <g
         id="g47940"
         transform="matrix(0.35277777,0,0,-0.35277777,153.19709,117.54459)"
         clip-path="url(#clipPath25010)">
        <path
           d="m 0,0 c 0,-0.509 -0.412,-0.922 -0.922,-0.922 -0.508,0 -0.92,0.413 -0.92,0.922 0,0.506 0.412,0.918 0.92,0.918 C -0.412,0.918 0,0.506 0,0"
           style="fill:#231f20;fill-opacity:1;fill-rule:nonzero;stroke:none"
           id="path47942" />
      </g>
      <g
         id="g47944"
         transform="matrix(0.35277777,0,0,-0.35277777,154.28463,117.54459)"
         clip-path="url(#clipPath25006)">
        <path
           d="m 0,0 c 0,-0.509 -0.414,-0.922 -0.921,-0.922 -0.511,0 -0.921,0.413 -0.921,0.922 0,0.506 0.41,0.918 0.921,0.918 C -0.414,0.918 0,0.506 0,0"
           style="fill:#231f20;fill-opacity:1;fill-rule:nonzero;stroke:none"
           id="path47946" />
      </g>
      <g
         id="g47948"
         transform="matrix(0.35277777,0,0,-0.35277777,155.3709,117.54459)"
         clip-path="url(#clipPath25002)">
        <path
           d="m 0,0 c 0,-0.509 -0.409,-0.922 -0.919,-0.922 -0.51,0 -0.921,0.413 -0.921,0.922 0,0.506 0.411,0.918 0.921,0.918 C -0.409,0.918 0,0.506 0,0"
           style="fill:#231f20;fill-opacity:1;fill-rule:nonzero;stroke:none"
           id="path47950" />
      </g>
      <g
         id="g47952"
         transform="matrix(0.35277777,0,0,-0.35277777,151.37859,118.42047)"
         clip-path="url(#clipPath24998)">
        <path
           d="m 0,0 c 0,-0.157 0.128,-0.281 0.283,-0.281 h 10.985 c 0.155,0 0.28,0.124 0.28,0.281 v 0.613 c 0,0.156 -0.125,0.282 -0.28,0.282 H 0.283 C 0.128,0.895 0,0.769 0,0.613 Z"
           style="fill:#231f20;fill-opacity:1;fill-rule:nonzero;stroke:none"
           id="path47954" />
      </g>
    </g>
  </g>
</svg>
